# xmcd CD database file
#
# Track frame offsets:
#	150
#	15005
#	38987
#	53842
#	73127
#	98660
#	137237
#	161152
#	195920
#	207250
#	238075
#	254472
#	294680
#
# Disc length: 4133 seconds
#
# Revision: 2
# Processed by: cddbd v1.5.2PL0 Copyright (c) Steve Scherf et al.
# Submitted via: CDex 1.51
#
DISCID=b810230d
DTITLE=Sidney Bechet and Claude Luter - Vol. 177 - Concert Salle Pleyel, 1952
DYEAR=1954
DGENRE=Jazz
TTITLE0=Sidney Bechet and Claude Luter - Petite Fleur
TTITLE1=Muskrat Ramble
TTITLE2=Summertime
TTITLE3=High Society
TTITLE4=St. Louis Blues
TTITLE5=Sweet Georgia Brown
TTITLE6=Frankie And Johnny
TTITLE7=I Found A New Baby
TTITLE8=September Song
TTITLE9=I Got Rythm
TTITLE10=Dippermouth Blues
TTITLE11=Society Blues
TTITLE12=Casey Jones
EXTD=Giants Of Jazz CD 53177 YEAR: 1954
EXTT0=
EXTT1=
EXTT2=
EXTT3=
EXTT4=
EXTT5=
EXTT6=
EXTT7=
EXTT8=
EXTT9=
EXTT10=
EXTT11=
EXTT12=
PLAYORDER=
